<svg xmlns="http://www.w3.org/2000/svg" version="1.1" xmlns:xlink="http://www.w3.org/1999/xlink" viewBox="0 0 200 200"><rect width="200" height="200" fill="url('#gradient')"></rect><defs><linearGradient id="gradient" gradientTransform="rotate(237 0.5 0.5)"><stop offset="0%" stop-color="#1b3855"></stop><stop offset="100%" stop-color="#4ac7ac"></stop></linearGradient></defs><g><g fill="#1b3855" transform="matrix(3.4541110330288123,0,0,3.4541110330288123,48.29125317758184,125.3740801756263)" stroke="#0e5278" stroke-width="0"><path d="M9.89-8.57L9.89-6.03L4.50-6.03L4.50-2.64L10.87-2.64L10.87 0L1.07 0L1.07-14.22L10.89-14.22L10.89-11.57L4.50-11.57L4.50-8.57L9.89-8.57ZM20.36-4.81L23.77-4.81Q23.70-3.33 22.97-2.19Q22.24-1.05 20.91-0.43Q19.59 0.20 17.89 0.20L17.89 0.20Q15.09 0.20 13.48-1.63Q11.87-3.46 11.87-6.79L11.87-6.79L11.87-7.49Q11.87-9.58 12.59-11.15Q13.32-12.71 14.69-13.57Q16.05-14.42 17.85-14.42L17.85-14.42Q20.44-14.42 22.01-13.06Q23.58-11.70 23.80-9.31L23.80-9.31L20.38-9.31Q20.34-10.61 19.73-11.17Q19.11-11.74 17.85-11.74L17.85-11.74Q16.57-11.74 15.98-10.78Q15.38-9.82 15.35-7.72L15.35-7.72L15.35-6.72Q15.35-4.44 15.92-3.47Q16.49-2.49 17.89-2.49L17.89-2.49Q19.07-2.49 19.70-3.05Q20.32-3.60 20.36-4.81L20.36-4.81ZM28.71-10.57L28.71 0L25.41 0L25.41-10.57L28.71-10.57ZM25.21-13.29L25.21-13.29Q25.21-13.99 25.72-14.44Q26.23-14.89 27.04-14.89Q27.85-14.89 28.36-14.44Q28.87-13.99 28.87-13.29Q28.87-12.59 28.36-12.14Q27.85-11.69 27.04-11.69Q26.23-11.69 25.72-12.14Q25.21-12.59 25.21-13.29Z"></path></g></g></svg>